# xmcd
#
# Track frame offsets:
# 150
# 14380
# 29600
# 46069
# 66340
# 80073
# 94722
# 111786
# 126991
# 141685
# 157811
# 169124
#
# Disc length: 2451 seconds
#
#
# Revision: 6
# Processed by: cddbd v1.5.1PL0 Copyright (c) Steve Scherf et al.
# Submitted via: FreeRIP 2.51 
#
DISCID=a409910c
DTITLE=Estopa - Estopa
DYEAR=1999
DGENRE=Blues
TTITLE0=Tu Calorro
TTITLE1=La Raja de tu falda
TTITLE2=Me falta el aliento
TTITLE3=Tan sólo
TTITLE4=Poquito a poco
TTITLE5=Suma y sigue
TTITLE6=El del Medio de los Chicos
TTITLE7=Como Camarón
TTITLE8=Exilio en el lavabo
TTITLE9=Estopa
TTITLE10=Cacho a cacho
TTITLE11=Bossanova
EXTD=
EXTT0=
EXTT1=
EXTT2=
EXTT3=
EXTT4=
EXTT5=
EXTT6=
EXTT7=
EXTT8=
EXTT9=
EXTT10=
EXTT11=
PLAYORDER=
